<svg  viewBox="0 0 291 254" fill="none" xmlns="http://www.w3.org/2000/svg">
<g clip-path="url(#clip0_3_141)">
<path d="M215.62 155.339C215.62 213.308 180.312 209.567 122.291 209.567C109.394 209.567 85.318 257.974 73.9056 253.727H73.9021C73.4819 253.573 73.0652 253.412 72.6484 253.248C72.5294 253.206 72.4103 253.16 72.2948 253.111C71.6399 252.859 70.9886 252.597 70.3408 252.328C69.0066 251.775 67.6864 251.194 66.3837 250.592C65.7079 250.277 65.0355 249.959 64.3702 249.63C58.193 246.604 52.3555 242.986 46.9312 238.854C44.1998 236.776 41.5699 234.562 39.0591 232.232C36.9791 230.3 34.9795 228.289 33.0675 226.196C32.4652 225.542 31.8769 224.881 31.2956 224.213C31.0575 223.943 30.8264 223.674 30.5988 223.405C28.9494 221.477 27.3736 219.486 25.8678 217.439C25.3811 216.778 24.9013 216.11 24.4286 215.435C21.2174 210.851 18.3635 205.995 15.9052 200.915C9.24476 187.131 5.51184 171.67 5.51184 155.339C5.51184 97.3702 52.5446 50.3802 110.566 50.3802C168.587 50.3802 215.62 97.3702 215.62 155.339Z" fill="#F2F2F2" fill-opacity="0.5"/>
<path d="M205.984 143.868C216.137 143.868 224.368 135.645 224.368 125.5C224.368 115.357 216.137 107.133 205.984 107.133C195.831 107.133 187.6 115.357 187.6 125.5C187.6 135.645 195.831 143.868 205.984 143.868Z" fill="white"/>
<path d="M143.433 79.0171L140.872 52.1596L109.723 55.57V78.591L143.433 79.0171Z" fill="#FFB6B6"/>
<path d="M155.165 188.366V208.28L154.493 207.976H73.2406L75.5868 193.495L75.9825 191.053L76.2942 189.139L91.0928 188.996L91.1068 188.992L97.0143 188.936L98.5166 188.922L99.6897 188.908L117.43 188.737L141.613 188.499L155.165 188.366Z" fill="#2F2E41"/>
<path d="M109.297 72.1962L143.006 75.1805L165.995 98.3834L157.3 154.262L155.167 194.761L74.947 193.483L84.3347 146.162L80.0674 81.7883L109.297 72.1962Z" fill="#E6E6E6"/>
<path d="M150.448 206.174L149.1 207.976H114.411C111.246 204.837 106.084 200.562 100.502 196.192C99.7457 195.594 98.9788 194.999 98.2084 194.404C97.9668 194.216 97.7252 194.03 97.4836 193.845L97.4801 193.841C96.2159 192.865 94.9448 191.892 93.6841 190.937C92.8192 190.28 91.9577 189.629 91.1068 188.992C91.1033 188.989 91.0998 188.985 91.0928 188.982C90.8196 188.775 90.543 188.569 90.2699 188.366C85.2553 184.608 80.6889 181.295 77.7824 179.192H77.7789C76.928 178.58 76.2171 178.073 75.6848 177.688C74.9355 177.149 74.5187 176.855 74.5187 176.855L75.3767 176.187C75.3837 176.191 75.3837 176.187 75.3837 176.187L78.8855 173.483L78.9205 173.455L81.1897 171.702L95.0813 160.965L94.5035 160.45L106.021 164.502L118.715 171.824L129.879 178.262L133.381 180.284C135.068 181.257 136.613 182.439 137.982 183.797C138.969 184.776 139.869 185.847 140.657 186.994C140.969 187.439 141.26 187.897 141.536 188.366L141.613 188.499L145.206 194.604L150.182 205.932L150.448 206.174Z" fill="white"/>
<path d="M132.479 207.977H154.493L150.448 206.174L147.888 205.031C142.477 202.619 136.362 203.995 132.479 207.977Z" fill="#FFB6B6"/>
<path d="M115.91 69.4253C131.7 69.4253 144.5 56.6371 144.5 40.8622C144.5 25.0871 131.7 12.299 115.91 12.299C100.121 12.299 87.3214 25.0871 87.3214 40.8622C87.3214 56.6371 100.121 69.4253 115.91 69.4253Z" fill="#FFB6B6"/>
<path d="M86.2547 82.0014C86.2547 82.0014 73.027 79.4436 67.4798 91.8067C61.9326 104.17 58.519 122.075 58.519 122.075L88.388 123.354L86.2547 82.0014Z" fill="#E6E6E6"/>
<path d="M121.264 207.976H94.9728L89.7026 202.983L89.6886 202.994L89.7761 202.906L98.2085 194.404L98.7443 193.862L101.196 191.396L101.259 191.329L102.271 192.389L103.752 193.943L103.829 194.023L111.925 202.504C115.304 203.483 118.396 205.261 120.946 207.678C121.054 207.776 121.159 207.878 121.264 207.976Z" fill="#FFB6B6"/>
<path d="M92.4816 187.678L97.6654 192.446C102.522 195.202 108.832 196.683 109.718 196.883L110.927 197.328C112.192 198.854 113.804 200.055 115.629 200.831C120.166 202.834 124.879 202.119 126.154 199.234C127.43 196.349 124.786 192.387 120.247 190.383C118.445 189.558 116.471 189.176 114.491 189.269L114.262 189.172L100.21 182.399" fill="#FFB6B6"/>
<path d="M100.336 165.133C101.189 165.133 86.6812 180.906 86.6812 180.906L99.2555 190.68L103.749 172.38L100.336 165.133Z" fill="white"/>
<path d="M103.95 193.943L99.474 189.803L97.9164 188.367L91.678 182.599L88.3243 179.111L83.5538 174.158L81.1897 171.702L79.5939 170.048L78.1473 168.543L78.7318 162.481L79.9396 149.99L81.4884 133.948L82.6958 121.444L82.8412 119.943L77.6949 112.519L58.435 121.965L53.3048 160.179L52.4343 164.297C51.7133 167.704 52.9081 171.233 55.5509 173.504L73.2403 188.699L75.5105 190.648L78.8813 193.547L89.9586 203.062L103.95 193.943Z" fill="#E6E6E6"/>
<path d="M74.3069 176.217C86.3258 176.217 96.0689 166.483 96.0689 154.475C96.0689 142.467 86.3258 132.733 74.3069 132.733C62.2884 132.733 52.5453 142.467 52.5453 154.475C52.5453 166.483 62.2884 176.217 74.3069 176.217Z" fill="#FFB6B6"/>
<path d="M83.6445 158.022L84.0122 151.37L81.0255 146.254C81.0255 146.254 80.1717 128.776 73.3446 129.628C66.5175 130.481 51.583 142.844 51.1561 147.533C50.7296 152.223 54.9332 172.346 60.5438 172.26C64.5912 172.197 63.6877 181.792 83.648 174.445C85.9129 173.611 77.185 168.423 78.465 165.438C79.7452 162.454 83.6445 158.022 83.6445 158.022Z" fill="#2F2E41"/>
<path d="M105.959 94.304C105.959 94.304 130.289 70.2908 139.911 74.5854C149.533 78.8796 165.918 99.1986 165.918 99.1986L142.29 118.315L105.959 94.304Z" fill="#E6E6E6"/>
<path d="M100.623 143.716C100.623 143.716 104 143.061 103.719 144.947C103.439 146.832 97.8632 154.486 96.1162 153.262C94.3688 152.039 95.3353 148.135 96.0139 147.465C96.6922 146.795 100.623 143.716 100.623 143.716Z" fill="white"/>
<path d="M103.726 144.208C100.747 145.347 97.1548 151.375 96.5906 152.797L113.818 168.798C115.057 169.649 116.662 169.665 117.906 168.841C122.647 165.705 124.695 159.574 125.495 156.199C125.877 154.587 125.111 152.918 123.634 152.139L103.726 144.208Z" fill="white"/>
<path d="M97.6717 147.658C98.8665 147.268 99.5668 146.133 99.2363 145.123C98.9057 144.112 97.6689 143.61 96.474 144.001C95.2792 144.391 94.5789 145.527 94.9094 146.537C95.24 147.547 96.4768 148.049 97.6717 147.658Z" fill="white"/>
<path d="M138.248 144.258L122.652 147.816C119.226 147.029 115.661 147.073 112.255 147.945C103.701 150.009 97.8341 156.09 99.1487 161.527C100.463 166.964 108.461 169.699 117.012 167.634C120.442 166.855 123.635 165.268 126.324 163.003L141.549 160.33L138.246 144.244L138.248 144.258Z" fill="#FFB6B6"/>
<path d="M163.744 97.662L142.997 113.847L162.317 135.648L138.246 144.244L141.549 160.33C143.662 160.014 147.821 159.352 152.919 158.333L162.438 156.217C172.129 153.825 182.662 150.421 188.914 145.949C202.796 136.018 163.744 97.662 163.744 97.662Z" fill="#E6E6E6"/>
<path d="M104.559 4.33315C110.213 2.34777 113.796 -4.29529 118.673 -4.19726C129.266 -3.98402 139.256 3.57524 140.493 4.68735C145.646 9.31743 147.615 14.424 149.883 20.3067C152.284 26.536 151.665 36.2552 150.781 43.0506C149.49 52.987 143.047 55.675 144.599 61.9725C145.685 66.3804 149.5 67.7389 154.05 71.5136C162.655 78.6536 165.865 87.7843 169.141 97.1039C176.949 119.311 172.122 143.156 169.14 143.396C168.51 143.447 167.798 142.017 166.375 139.159C162.015 130.405 163.32 127.423 160.906 124.609C156.587 119.573 149.266 125.447 139.976 120.937C132.658 117.383 129.454 109.977 127.588 105.661C126.515 103.18 121.99 92.7184 125.585 81.6061C128.915 71.3138 135.343 70.1341 138.752 58.0813C139.471 55.5403 142.036 48.8684 138.037 44.5116C136.009 42.3032 137.926 55.9195 135.05 53.9851C128.054 49.2816 128.337 26.7814 121.704 21.3402C118.529 18.7367 114.102 18.0876 110.778 18.7981C102.884 20.485 89.5913 29.869 89.3241 38.5604C88.8934 52.5486 94.145 58.0278 106.45 67.1039C107.779 68.0846 103.167 68.0059 101.202 67.7053C91.1975 66.1764 85.9707 54.0772 84.8932 51.3615C81.7357 43.4039 82.6293 36.4389 83.3206 31.0518C84.2041 24.1658 85.1552 16.7547 90.9167 11.209C94.3278 7.92592 98.0516 6.61831 104.559 4.33315Z" fill="#2F2E41"/>
</g>
<defs>
<clipPath id="clip0_3_141">
<rect width="291" height="254" fill="white"/>
</clipPath>
</defs>
</svg>
